<svg enable-background="new 0 0 128 128" viewBox="0 0 128 128" xmlns="http://www.w3.org/2000/svg" xmlns:xlink="http://www.w3.org/1999/xlink"><linearGradient id="a" gradientUnits="userSpaceOnUse" x1="63.831" x2="63.831" y1="28.499" y2="86.604"><stop offset=".0080231" stop-color="#fff59d"/><stop offset=".1653" stop-color="#fff297"/><stop offset=".3707" stop-color="#feeb87"/><stop offset=".6028" stop-color="#fdde6c"/><stop offset=".8526" stop-color="#fccc47"/><stop offset="1" stop-color="#fbc02d"/></linearGradient><linearGradient id="b" gradientUnits="userSpaceOnUse" x1="63.963" x2="63.963" y1="51.59" y2="122.95"><stop offset=".0077553" stop-color="#757575"/><stop offset="1" stop-color="#424242"/></linearGradient><linearGradient id="c" gradientUnits="userSpaceOnUse" x1="63.831" x2="63.831" y1="69.465" y2="90.043"><stop offset="0" stop-color="#fafafa"/><stop offset=".2634" stop-color="#efefef"/><stop offset=".7258" stop-color="#d2d2d2"/><stop offset="1" stop-color="#bdbdbd"/></linearGradient><g fill="#424242"><path d="m26.33 16.42h74.57v12.31h-74.57z"/><path d="m20.09 50.7 7.95-25.18v-9.1h-6.8l-15.77 34.28z"/><path d="m122.46 50.7-15.78-34.28h-6.79v9.1l7.95 25.18z"/></g><path d="m92.59 61.09h-57.11c-2.21 0-4-1.79-4-4v-45.92c0-2.21 1.79-4 4-4h57.11c2.21 0 4 1.79 4 4v45.92c0 2.21-1.79 4-4 4z" fill="#f9a825"/><path d="m99.37 70.55h-71.07c-2.21 0-4-1.79-4-4v-44.6c0-2.21 1.79-4 4-4h71.07c2.21 0 4 1.79 4 4v44.6c0 2.21-1.8 4-4 4z" fill="#fdd835"/><path d="m106.55 86.71h-85.44c-2.21 0-4-1.79-4-4v-49.98c0-2.21 1.79-4 4-4h85.45c2.21 0 4 1.79 4 4v49.97c-.01 2.22-1.8 4.01-4.01 4.01z" fill="url(#a)"/><path d="m75.99 14.81h-17.28c-1.66 0-3-1.34-3-3v-4.36c0-1.66 1.34-3 3-3h17.27c1.66 0 3 1.34 3 3v4.36c.01 1.65-1.34 3-2.99 3z" fill="#4480f7"/><path d="m43.47 26.59c-2.48 0-4.5-2.02-4.5-4.5v-4.36c0-2.48 2.02-4.5 4.5-4.5h17.36c2.48 0 4.5 2.02 4.5 4.5v4.36c0 2.48-2.02 4.5-4.5 4.5z" fill="#2ca94f"/><path d="m60.83 14.73c1.66 0 3 1.34 3 3v4.36c0 1.66-1.34 3-3 3h-17.36c-1.66 0-3-1.34-3-3v-4.36c0-1.66 1.34-3 3-3zm0-3h-17.36c-3.31 0-6 2.69-6 6v4.36c0 3.31 2.69 6 6 6h17.36c3.31 0 6-2.69 6-6v-4.36c0-3.31-2.69-6-6-6z" fill="#fdd835"/><path d="m29.33 36.95c-2.21 0-4-1.79-4-4v-4.36c0-2.21 1.79-4 4-4h18.18c2.21 0 4 1.79 4 4v4.36c0 2.21-1.79 4-4 4z" fill="#ec4431"/><path d="m47.5 25.59c1.66 0 3 1.34 3 3v4.36c0 1.66-1.34 3-3 3h-18.17c-1.66 0-3-1.34-3-3v-4.36c0-1.66 1.34-3 3-3zm0-2h-18.17c-2.76 0-5 2.24-5 5v4.36c0 2.76 2.24 5 5 5h18.17c2.76 0 5-2.24 5-5v-4.36c0-2.76-2.24-5-5-5z" fill="#fff59d"/><path d="m108.86 50.59h-5.9-17.23-43.53-22.11-1.02"/><path d="m5.47 50.7 6.8 73.27h103.39l6.8-73.27" fill="url(#b)"/><path d="m75.88 7.73c.11 0 .16.09.17.16.22 1.47 1.48 2.56 2.97 2.56h13.4c.69 0 1.25.56 1.25 1.25v5.01c0 1.66 1.34 3 3 3h8.17l14.64 31.8-6.48 69.75h-97.93l-6.47-69.76 14.64-31.8h8.32c1.66 0 3-1.34 3-3v-5c0-.69.56-1.25 1.25-1.25h20.03c1.49 0 2.75-1.09 2.97-2.56.01-.06.06-.16.17-.16zm0-3h-16.9c-1.6 0-2.91 1.18-3.14 2.72h-20.03c-2.35 0-4.25 1.9-4.25 4.25v5.01h-10.25l-15.77 34.27 6.8 73.28h103.39l6.8-73.28-15.77-34.28h-10.09v-5c0-2.35-1.9-4.25-4.25-4.25h-13.4c-.23-1.54-1.54-2.72-3.14-2.72z" fill="#eee" opacity=".2"/><path d="m87.18 90.9h-46.7l-1.06-21.75h48.82z" fill="url(#c)" stroke="#bdbdbd" stroke-miterlimit="10" stroke-width="3"/></svg>